<svg width="1840" height="1380" viewBox="0 0 1840 1380" fill="none" xmlns="http://www.w3.org/2000/svg">
<path d="M741.941 675.707C741.941 675.707 741.132 655.396 751.287 642.408C761.443 629.42 770.577 619.746 774.682 617.935C778.786 616.123 784.702 614.967 787.67 610.419C790.638 605.871 796.322 598.125 802.026 597.431C807.711 596.756 820.931 594.463 820.931 594.463L830.489 584.674V579.432C830.489 579.432 824.573 579.895 822.299 578.064C820.025 576.233 812.953 558.254 814.783 553.012C816.614 547.771 823.898 544.591 823.898 544.591C823.898 544.591 836.193 507.245 852.823 500.192C869.454 493.139 922.737 506.571 922.737 506.571C922.737 506.571 926.61 546.191 926.841 545.516C927.072 544.842 939.367 542.105 939.367 542.105C939.367 542.105 939.367 563.746 934.588 566.694C929.809 569.662 927.304 570.105 927.304 570.105C927.304 570.105 929.346 581.957 926.398 592.189C923.43 602.441 916.377 612.905 916.377 612.905C916.377 612.905 953.723 626.336 961.239 633.621C968.754 640.905 994.943 675.515 1003.36 693.282C1011.79 711.049 1014.29 719.008 1019.53 723.113C1024.77 727.217 1032.29 732.228 1034.56 734.502C1036.84 736.776 1040.04 741.786 1043.45 749.764C1046.86 757.742 1063.95 778.226 1063.95 778.226L980.375 785.279C980.375 785.279 959.196 770.48 953.511 764.332C947.827 758.185 945.534 754.08 945.534 754.08L933.239 785.279C933.239 785.279 1033.21 783.449 1047.11 781.868C1061 780.269 1083.78 776.396 1093.8 774.815C1103.82 773.216 1153.46 762.521 1159.84 764.564C1166.22 766.606 1181.48 773.91 1185.8 779.132C1190.13 784.374 1196.72 800.541 1193.31 808.963C1189.9 817.384 1175.1 824.456 1172.37 825.131C1169.63 825.805 1158.24 829.235 1155.52 829.91C1152.79 830.584 1147.33 832.415 1143.46 830.372C1139.59 828.329 1134.58 824.899 1134.58 824.899C1134.58 824.899 1126.16 822.625 1119.78 820.795C1113.4 818.964 1089.48 817.384 1085.17 817.153C1080.85 816.921 1061.02 822.394 1061.02 822.394C1061.02 822.394 1065.36 830.141 1064.2 833.321C1063.04 836.5 1050.77 851.531 1050.77 851.531L1037.11 850.163L1032.77 855.848L1018.88 851.974L1013.19 855.154L1003.63 853.786C1003.63 853.786 909.363 835.113 894.101 820.987C878.838 806.862 769.98 736.043 769.98 736.043L741.941 675.707Z" fill="white"/>
<path d="M941.003 867.33L773.272 917.684L811.563 938.612L957.652 961.312L1107.65 901.034L1107.31 894.289C1107.31 894.289 941.349 869.469 941.003 867.33Z" fill="white" stroke="#031F43" stroke-width="3.85409" stroke-miterlimit="10" stroke-linecap="round" stroke-linejoin="round"/>
<path d="M950.194 936.993L1070.38 895.485L946.996 876.176L827.962 915.95L950.194 936.993Z" fill="#031F43"/>
<path d="M756.486 565.286C755.58 554.668 758.374 544.127 764.618 535.494C773.232 523.585 783.291 505.567 781.827 487.896C780.69 474.175 768.665 454.462 771.517 443.169C774.369 431.877 785.392 408.001 767.836 391.254C753.191 377.283 742.669 378.517 727.214 370.635C714.052 363.929 691.525 349.071 664.354 360.48C640.285 370.597 639.09 389.289 625.35 398.038C611.63 406.767 596.059 413.223 590.587 444.981C584.998 477.432 601.706 490.729 583.9 507.552C566.094 524.375 521.656 506.106 512.252 560.391C505.064 601.881 533.835 609.801 543.721 618.492C553.607 627.183 692.45 649.883 716.346 635.43C753.692 612.846 758.028 583.246 756.486 565.286Z" fill="#031F43"/>
<path d="M648.783 497.396L614.309 554.302L663.294 656.339L713.686 545.496L648.783 497.396Z" fill="white" stroke="#031F43" stroke-width="3.85409" stroke-miterlimit="10" stroke-linecap="round" stroke-linejoin="round"/>
<path d="M766.241 447.466C766.241 447.466 760.71 513.274 736.815 542.315C715.713 567.945 697.927 565.266 679.061 544.839C663.587 528.093 647.631 501.211 647.631 501.211C647.631 501.211 629.17 492.443 635.066 477.759C640.944 463.075 656.187 473.905 656.187 473.905C656.187 473.905 672.258 475.947 672.451 449.547C672.605 430.103 689.467 404.049 729.453 411.411C769.439 418.791 766.241 447.466 766.241 447.466Z" fill="white" stroke="#031F43" stroke-width="3.85409" stroke-miterlimit="10" stroke-linecap="round" stroke-linejoin="round"/>
<path d="M737.777 518.826C737.777 518.826 729.934 519.115 721.59 515.261C713.246 511.407 707.118 506.84 707.118 506.84C707.118 506.84 703.572 522.487 714.229 528.558C727.39 536.054 737.777 518.826 737.777 518.826Z" stroke="#031F43" stroke-width="3.85409" stroke-miterlimit="10" stroke-linecap="round" stroke-linejoin="round"/>
<path d="M739.416 461.283C739.512 461.938 736.448 478.087 740.996 491.48C742.037 494.563 740.668 498.591 735.986 498.88C729.337 499.285 726.852 495.488 726.852 495.488" stroke="#031F43" stroke-width="3.85409" stroke-miterlimit="10" stroke-linecap="round" stroke-linejoin="round"/>
<path d="M698.849 607.853L673.662 673.315C673.662 673.315 634.505 636.161 615.042 604.115C595.578 572.087 569.409 555.861 569.409 555.861C569.409 555.861 512.157 584.979 487.028 630.207C461.899 675.435 462.362 723.379 452.649 769.513C445.866 801.772 443.65 854.958 442.744 873.766C441.338 902.999 444.17 934.622 445.789 947.996C447.234 959.982 455.598 974.396 462.805 980.004C470.031 985.612 516.358 994.187 522.37 993.378C528.382 992.569 559.176 970.697 560.468 960.56C563.724 934.988 524.413 915.506 540.06 909.494C555.708 903.481 569.737 902.768 569.737 902.768C569.737 902.768 643.157 915.968 674.51 907.798C705.863 899.627 678.846 890.609 678.846 890.609L728.564 785.758C728.564 785.758 782.078 829.29 786.163 836.092C790.249 842.895 797.051 856.057 801.58 856.962C806.108 857.868 810.656 864.67 818.364 867.388C826.072 870.105 831.969 861.491 831.969 861.491C831.969 861.491 827.441 826.11 844.668 811.6C861.896 797.089 892.844 801.656 892.844 801.656C892.844 801.656 892.844 793.832 887.16 790.287C881.475 786.721 854.438 780.574 851.374 780.092C848.291 779.611 847.809 776.778 844.264 772.75C840.699 768.723 829.811 762.788 823.413 759.242C817.015 755.696 816.071 757.585 813.701 755.677C811.33 753.788 804.933 739.316 794.507 728.891C784.082 718.465 769.61 698.54 757.046 676.745C744.481 654.931 738.796 649.728 734.056 644.737C729.315 639.765 712.492 618.664 707.501 613.923C702.51 609.183 698.849 607.853 698.849 607.853Z" fill="#F3B63F"/>
<path d="M574.881 892.46C574.881 892.46 557.942 870.8 520.018 869.894C497.433 869.354 474.944 879.49 474.944 879.49" stroke="#031F43" stroke-width="3.85409" stroke-miterlimit="10" stroke-linecap="round" stroke-linejoin="round"/>
<path d="M836.344 912.636C836.344 912.636 870.395 935.896 879.76 935.337C889.126 934.778 891.4 930.789 891.4 927.667C891.4 924.545 851.683 892.209 847.713 890.225C843.744 888.24 792.388 874.057 786.992 874.057C781.596 874.057 699.331 877.178 685.996 878.604C672.661 880.03 579.893 892.788 574.786 892.788C569.679 892.788 551.97 888.509 536.091 896.699C525.993 901.902 513.178 924.141 506.414 948.672C503.716 958.442 503.851 962.566 508.399 970.794C512.947 979.023 516.628 982.703 516.628 982.703C516.628 982.703 560.102 974.899 580.027 969.792C605.503 963.279 677.69 932.986 685.341 933.834C693.01 934.681 700.873 943.238 720.047 943.546C733.459 943.758 760.611 952.911 768.281 951.485C775.95 950.059 792.118 945.82 792.118 945.82C792.118 945.82 800.058 950.368 810.001 948.094C819.925 945.82 822.199 934.469 822.199 934.469C822.199 934.469 835.534 953.2 842.337 954.048C849.139 954.896 854.535 948.942 853.109 942.987C851.664 937.032 836.344 912.636 836.344 912.636Z" fill="white" stroke="#031F43" stroke-width="3.85409" stroke-miterlimit="10" stroke-linecap="round" stroke-linejoin="round"/>
<path d="M836.349 912.636C836.349 911.21 820.181 893.057 815.633 890.513C811.086 887.95 775.339 884.27 775.339 884.27" stroke="#031F43" stroke-width="3.85409" stroke-miterlimit="10" stroke-linecap="round" stroke-linejoin="round"/>
<path d="M822.164 934.49C822.164 934.49 811.661 921.444 797.767 914.352C783.873 907.261 764.854 903.002 764.854 903.002" stroke="#031F43" stroke-width="3.85409" stroke-miterlimit="10" stroke-linecap="round" stroke-linejoin="round"/>
<path d="M792.081 945.84C792.081 945.84 766.837 930.52 759.167 927.398C751.498 924.276 745.273 920.865 745.273 920.865" stroke="#031F43" stroke-width="3.85409" stroke-miterlimit="10" stroke-linecap="round" stroke-linejoin="round"/>
<path d="M728.557 785.74C728.557 785.74 732.295 765.564 733.606 745.311C734.916 725.058 733.606 707.098 733.606 707.098" stroke="#031F43" stroke-width="3.85409" stroke-miterlimit="10" stroke-linecap="round" stroke-linejoin="round"/>
<path d="M892.05 800.385C892.05 800.385 923.423 818.229 931.073 821.178C938.723 824.126 941.672 823.529 945.198 820.195C948.725 816.861 967.957 811.176 971.676 810.194C975.395 809.211 983.643 808.228 986.572 810.984C989.52 813.72 993.24 821.178 993.24 821.178C993.24 821.178 998.134 820.002 1001.08 826.67C1004.03 833.337 1006.38 843.724 1006.57 847.27C1006.77 850.816 1003.05 860.027 1003.05 860.027C1003.05 860.027 1002.26 869.836 998.924 875.52C995.591 881.205 988.73 885.522 985.782 885.907C982.833 886.293 952.829 884.732 951.268 882.573C949.708 880.415 949.11 875.309 949.11 875.309C949.11 875.309 942.25 873.94 940.477 872.167C938.704 870.395 934.792 868.641 934.792 868.641L830.269 857.271C830.269 857.271 818.707 831.969 835.569 812.352C852.43 792.735 892.05 800.385 892.05 800.385Z" fill="white" stroke="#031F43" stroke-width="3.85409" stroke-miterlimit="10" stroke-linecap="round" stroke-linejoin="round"/>
<path d="M964.818 880.801C964.818 880.801 973.837 880.608 983.048 874.923C992.26 869.239 1003.05 860.027 1003.05 860.027" stroke="#031F43" stroke-width="3.85409" stroke-miterlimit="10" stroke-linecap="round" stroke-linejoin="round"/>
<path d="M1038.51 850.065C1038.51 850.065 1042.52 851.144 1046.01 851.665C1049.5 852.204 1050.56 852.744 1052.96 850.586C1055.37 848.447 1062.08 839.062 1063.14 836.113C1064.22 833.165 1061.81 821.641 1058.59 821.121C1055.37 820.581 1050.83 818.712 1050.83 818.712C1050.83 818.712 1045.2 813.355 1041.71 813.085C1038.22 812.815 1034.21 813.085 1034.21 813.085C1034.21 813.085 1029.13 806.919 1024.04 806.919C1018.95 806.919 1015.19 808.518 1015.19 808.518C1015.19 808.518 1010.65 803.701 1005.02 805.3C999.392 806.899 991.356 815.205 991.356 815.205" stroke="#031F43" stroke-width="3.85409" stroke-miterlimit="10" stroke-linecap="round" stroke-linejoin="round"/>
<path d="M1043.86 829.176C1043.86 829.176 1037.18 854.883 1033.96 855.422C1030.74 855.962 1021.64 852.204 1021.64 852.204" stroke="#031F43" stroke-width="3.85409" stroke-miterlimit="10" stroke-linecap="round" stroke-linejoin="round"/>
<path d="M1028.07 820.871C1028.07 820.871 1024.06 825.958 1023.79 831.046C1023.52 836.133 1020.84 854.074 1017.62 854.883C1014.4 855.693 1006.91 854.074 1006.91 854.074" stroke="#031F43" stroke-width="3.85409" stroke-miterlimit="10" stroke-linecap="round" stroke-linejoin="round"/>
<path d="M1010.64 814.705C1010.64 814.705 1004.21 824.88 1004.48 832.646" stroke="#031F43" stroke-width="3.85409" stroke-miterlimit="10" stroke-linecap="round" stroke-linejoin="round"/>
<path d="M1060.85 823.124C1060.85 823.124 1079.41 816.649 1088.17 817.709C1096.94 818.769 1107.98 819.579 1112.16 819.579C1116.33 819.579 1124.88 824.589 1130.72 824.801C1136.56 825.013 1136.56 825.013 1136.56 825.013C1136.56 825.013 1142.19 831.488 1149.07 831.68C1155.95 831.892 1161.57 827.306 1161.57 827.306C1161.57 827.306 1170.96 827.518 1175.14 824.377C1179.3 821.255 1178.47 814.568 1178.47 814.568C1178.47 814.568 1186.39 811.851 1188.28 808.729C1190.17 805.608 1189.32 799.133 1189.32 799.133C1189.32 799.133 1192.45 786.414 1190.79 783.485C1189.13 780.556 1164.93 765.332 1158.05 765.14C1151.17 764.928 1124.46 771.807 1109.66 773.696C1094.86 775.565 1068.36 778.494 1045.01 781.616C1021.65 784.738 959.08 786.626 942.816 786.414C926.552 786.202 916.531 782.868 916.531 782.868" stroke="#031F43" stroke-width="3.85409" stroke-miterlimit="10" stroke-linecap="round" stroke-linejoin="round"/>
<path d="M1166.84 780.152C1166.45 779.208 1187.98 794.817 1188.94 797.862" stroke="#031F43" stroke-width="3.85409" stroke-miterlimit="10" stroke-linecap="round" stroke-linejoin="round"/>
<path d="M1159.32 794.411C1159.07 793.409 1178.36 811.716 1178.9 814.876" stroke="#031F43" stroke-width="3.85409" stroke-miterlimit="10" stroke-linecap="round" stroke-linejoin="round"/>
<path d="M1150.83 809.482C1150.58 808.48 1162.55 823.318 1163.11 826.479" stroke="#031F43" stroke-width="3.85409" stroke-miterlimit="10" stroke-linecap="round" stroke-linejoin="round"/>
<path d="M932.776 784.158C932.776 784.158 941.255 770.611 948.019 750.281C954.803 729.951 960.218 705.227 960.218 705.227" stroke="#031F43" stroke-width="3.85409" stroke-miterlimit="10" stroke-linecap="round" stroke-linejoin="round"/>
<path d="M827.419 591.609C827.419 591.609 831.62 611.439 847.248 634.563C862.877 657.688 867.078 663.7 867.675 670.907C868.272 678.114 866.769 681.718 868.581 684.416C870.392 687.114 872.493 704.843 872.493 712.647C872.493 720.452 871.895 730.665 871.895 730.665" stroke="#031F43" stroke-width="3.85409" stroke-miterlimit="10" stroke-linecap="round" stroke-linejoin="round"/>
<path d="M829.23 675.107C829.23 675.107 848.462 700.332 852.066 707.54C855.67 714.747 864.38 724.652 880.606 738.18C896.831 751.708 897.718 755.292 901.63 759.801C905.542 764.31 912.749 768.82 915.138 772.423C917.528 776.027 920.553 778.725 920.553 778.725C920.553 778.725 912.151 785.334 908.837 789.246C905.522 793.158 897.12 803.661 897.12 803.661" stroke="#031F43" stroke-width="3.85409" stroke-miterlimit="10" stroke-linecap="round" stroke-linejoin="round"/>
<path d="M896.794 642.947C896.794 642.947 875.191 705.904 874.112 719.721" stroke="#031F43" stroke-width="3.85409" stroke-miterlimit="10" stroke-linecap="round" stroke-linejoin="round"/>
<path d="M830.406 586.85C830.406 586.85 816.936 600.782 815.298 606.197C813.66 611.612 810.962 619.205 810.692 621.363C810.422 623.521 819.903 634.101 830.483 646.839C841.062 659.576 847.557 674.472 848.905 677.459C850.254 680.446 852.702 672.044 857.038 669.867C861.373 667.708 867.675 670.907 867.675 670.907" stroke="#031F43" stroke-width="3.85409" stroke-miterlimit="10" stroke-linecap="round" stroke-linejoin="round"/>
<path d="M821.541 594.385C821.541 594.385 799.053 596.986 793.349 604.56C787.645 612.133 781.96 615.39 775.466 618.376C768.972 621.363 745.654 645.741 745.654 655.511" stroke="#031F43" stroke-width="3.85409" stroke-miterlimit="10" stroke-linecap="round" stroke-linejoin="round"/>
<path d="M918.014 614.041C918.014 614.041 939.423 622.173 950.812 626.779C962.201 631.384 973.57 644.662 982.512 660.117C991.453 675.572 999.586 689.389 1005 697.79C1010.42 706.192 1012.59 710.528 1016.66 719.2C1020.73 727.872 1026.68 731.128 1032.11 734.096C1037.53 737.083 1040.25 743.038 1045.93 754.157C1051.62 765.276 1064.62 779.093 1064.62 779.093" stroke="#031F43" stroke-width="3.85409" stroke-miterlimit="10" stroke-linecap="round" stroke-linejoin="round"/>
<path d="M946.453 755.234C946.453 755.234 949.98 763.097 959.191 770.4C968.402 777.704 976.534 786.395 976.534 786.395" stroke="#031F43" stroke-width="3.85409" stroke-miterlimit="10" stroke-linecap="round" stroke-linejoin="round"/>
<path d="M908.454 625.699C908.454 625.699 916.008 659.692 912.327 664.587C908.647 669.482 898.549 671.64 895.177 682.354C891.804 693.069 872.572 729.413 872.572 729.413" stroke="#031F43" stroke-width="3.85409" stroke-miterlimit="10" stroke-linecap="round" stroke-linejoin="round"/>
<path d="M819.809 547.885C819.809 547.885 827.671 559.679 834.146 558.985C840.621 558.291 844.784 545.573 846.402 537.961C848.021 530.33 846.402 515.781 873.901 518.999C901.4 522.236 915.063 522.93 924.332 516.821C935.278 509.595 932.869 495.604 930.075 486.644C927.454 478.203 912.731 459.376 912.038 459.838C911.344 460.301 903.944 471.401 893.075 473.482C882.207 475.563 837.133 476.257 826.284 489.9C815.415 503.544 817.265 517.168 817.959 525.955C818.653 534.743 819.809 547.885 819.809 547.885Z" fill="#031F43"/>
<path d="M861.451 552.587C861.451 552.587 882.938 552.78 902.517 550.486C922.096 548.193 939.593 542.701 939.593 542.701C939.593 542.701 939.015 563.802 932.559 568.369C926.104 572.937 917.355 572.166 912.229 569.699C907.103 567.232 903.114 553.917 899.299 553.917C895.483 553.917 898.913 562.473 890.357 570.451C881.801 578.429 872.339 579.257 866.404 574.44C857.27 567.02 861.451 552.587 861.451 552.587Z" stroke="#031F43" stroke-width="3.85409" stroke-miterlimit="10" stroke-linecap="round" stroke-linejoin="round"/>
<path d="M861.454 552.586L827.441 545.359" stroke="#031F43" stroke-width="3.85409" stroke-miterlimit="10" stroke-linecap="round" stroke-linejoin="round"/>
<path d="M878.564 564.939C880.246 564.939 881.609 563.576 881.609 561.894C881.609 560.213 880.246 558.85 878.564 558.85C876.883 558.85 875.52 560.213 875.52 561.894C875.52 563.576 876.883 564.939 878.564 564.939Z" stroke="#031F43" stroke-width="3.85409" stroke-miterlimit="10" stroke-linecap="round" stroke-linejoin="round"/>
<path d="M920.38 560.006C922.061 560.006 923.424 558.642 923.424 556.961C923.424 555.279 922.061 553.916 920.38 553.916C918.698 553.916 917.335 555.279 917.335 556.961C917.335 558.642 918.698 560.006 920.38 560.006Z" stroke="#031F43" stroke-width="3.85409" stroke-miterlimit="10" stroke-linecap="round" stroke-linejoin="round"/>
<path d="M865.824 547.268L883.514 545.553" stroke="#031F43" stroke-width="3.85409" stroke-miterlimit="10" stroke-linecap="round" stroke-linejoin="round"/>
<path d="M906.504 544.973C906.504 544.973 912.208 539.269 920.379 541.736" stroke="#031F43" stroke-width="3.85409" stroke-miterlimit="10" stroke-linecap="round" stroke-linejoin="round"/>
<path d="M902.709 566.27C902.709 566.27 903.287 574.055 905.368 578.622C907.45 583.189 908.972 586.234 908.972 586.234C908.972 586.234 905.542 588.7 899.472 588.334" stroke="#031F43" stroke-width="3.85409" stroke-miterlimit="10" stroke-linecap="round" stroke-linejoin="round"/>
<path d="M881.81 601.245C881.81 601.245 886.569 602.189 893.777 601.438C901.003 600.686 906.322 597.256 906.322 597.256C906.322 597.256 908.229 606.949 899.673 609.223C891.117 611.516 881.81 601.245 881.81 601.245Z" stroke="#031F43" stroke-width="3.85409" stroke-miterlimit="10" stroke-linecap="round" stroke-linejoin="round"/>
<path d="M924.928 508.168C924.928 508.168 929.264 568.35 926.97 584.922C924.677 601.495 914.984 626.739 897.14 630.323C879.295 633.888 865.016 624.966 855.573 612.98" stroke="#031F43" stroke-width="3.85409" stroke-miterlimit="10" stroke-linecap="round" stroke-linejoin="round"/>
<path d="M823.951 548.212C823.951 548.212 816.051 545.918 815.029 552.547C814.008 559.177 818.344 577.291 823.45 579.333C828.557 581.376 831.101 579.333 831.101 579.333L833.143 607.642" stroke="#031F43" stroke-width="3.85409" stroke-miterlimit="10" stroke-linecap="round" stroke-linejoin="round"/>
<path d="M899.683 630.574L895.347 665.781" stroke="#031F43" stroke-width="3.85409" stroke-miterlimit="10" stroke-linecap="round" stroke-linejoin="round"/>
<path d="M673.661 673.317C673.661 673.317 670.924 654.798 670.385 644.488C669.845 634.179 670.057 635.316 670.057 635.316L619.684 548.001L628.896 534.454L600.221 528.596L569.369 555.863C569.369 555.863 593.399 593.672 619.453 620.92C645.507 648.169 673.661 673.317 673.661 673.317Z" fill="#F3B63F" stroke="#031F43" stroke-width="3.85409" stroke-miterlimit="10" stroke-linecap="round" stroke-linejoin="round"/>
<path d="M694.439 588.777L698.852 607.855" stroke="#031F43" stroke-width="3.85409" stroke-miterlimit="10" stroke-linecap="round" stroke-linejoin="round"/>
<path d="M646.744 503.217L628.919 534.454" stroke="#031F43" stroke-width="3.85409" stroke-miterlimit="10" stroke-linecap="round" stroke-linejoin="round"/>
<path d="M673.665 673.315L670.389 637.741L701.78 572.742L707.484 613.904L673.665 673.315Z" fill="#F3B63F" stroke="#031F43" stroke-width="3.85409" stroke-miterlimit="10" stroke-linecap="round" stroke-linejoin="round"/>
<path d="M697.901 442.147C697.901 442.147 690.944 448.333 694.837 458.488C698.402 467.777 704.106 471.303 712.623 471.457C723.608 471.669 728.599 467.121 731.913 460.242C735.016 453.806 730.179 442.821 730.179 442.821C730.179 442.821 729.601 445.828 727.519 446.059C723.646 446.521 725.612 439.815 725.631 436.308C725.65 431.876 721.623 428.08 718.212 424.881C714.801 421.682 711.853 420.102 711.853 420.102C711.853 420.102 713.895 429.313 712.296 431.953C710.523 434.882 708.21 431.413 708.21 431.413C708.21 431.413 704.53 436.057 704.279 439.873C704.029 443.689 704.511 447.678 701.389 448.121C698.267 448.564 697.901 442.147 697.901 442.147Z" fill="#E62C8B"/>
<path d="M711.911 470.765C710.967 470.707 710.08 470.321 709.386 469.686C708.211 468.587 706.38 466.544 705.166 463.519C703.278 458.759 705.513 453.787 705.513 453.787C705.513 453.787 706.689 455.637 707.652 453.672C708.616 451.706 708.731 444.865 711.082 441.551C713.433 438.255 716.189 436.926 716.189 436.926C716.189 436.926 713.742 445.559 716.825 450.646C719.927 455.734 721.411 454.982 721.758 460.031C722.124 465.388 716.304 469.666 714.917 470.399C714.165 470.803 712.894 470.823 711.911 470.765Z" fill="#F3B63F"/>
<path d="M713.278 451.916C713.278 451.916 714.819 454.402 716.631 458.063C718.442 461.725 717.305 467.487 713.528 468.412C709.751 469.337 708.267 463.382 708.595 461.667C708.922 459.933 709.385 458.507 709.385 458.507L710.503 460.703C710.503 460.703 710.792 461.147 711.139 457.678C711.485 454.19 713.278 451.916 713.278 451.916Z" fill="white"/>
<path d="M742.73 445.54C742.73 445.54 735.773 451.725 739.666 461.881C743.231 471.169 748.935 474.696 757.453 474.85C768.437 475.062 773.428 470.514 776.742 463.635C779.845 457.198 775.008 446.214 775.008 446.214C775.008 446.214 774.43 449.22 772.349 449.451C768.475 449.914 770.441 443.208 770.46 439.701C770.479 435.268 766.452 431.472 763.041 428.273C759.63 425.074 756.682 423.494 756.682 423.494C756.682 423.494 758.724 432.705 757.125 435.345C755.352 438.275 753.04 434.806 753.04 434.806C753.04 434.806 749.359 439.45 749.108 443.266C748.858 447.081 749.34 451.07 746.218 451.513C743.096 451.957 742.73 445.54 742.73 445.54Z" fill="#E62C8B"/>
<path d="M756.74 474.157C755.796 474.099 754.909 473.714 754.216 473.078C753.04 471.98 751.209 469.937 749.995 466.912C748.107 462.152 750.342 457.18 750.342 457.18C750.342 457.18 751.518 459.03 752.481 457.064C753.425 455.099 753.56 448.258 755.911 444.943C758.262 441.648 761.018 440.318 761.018 440.318C761.018 440.318 758.571 448.952 761.654 454.039C764.756 459.126 766.24 458.375 766.587 463.424C766.953 468.781 761.134 473.059 759.746 473.791C758.995 474.196 757.723 474.215 756.74 474.157Z" fill="#F3B63F"/>
<path d="M758.109 455.309C758.109 455.309 759.65 457.794 761.462 461.456C763.273 465.117 762.136 470.879 758.359 471.804C754.582 472.748 753.098 466.775 753.426 465.059C753.754 463.325 754.216 461.899 754.216 461.899L755.334 464.096C755.334 464.096 755.623 464.539 755.97 461.07C756.336 457.583 758.109 455.309 758.109 455.309Z" fill="white"/>
<path d="M538.017 869.356L554.069 773.832" stroke="#031F43" stroke-width="3.85409" stroke-miterlimit="10" stroke-linecap="round" stroke-linejoin="round"/>
<path d="M649.747 499.42L643.484 513.295L666.166 537.922L675.705 527.015L649.747 499.42Z" fill="white"/>
<path d="M952.852 901.999L951.194 889.358L971.525 781.405C971.525 781.405 973.933 779.15 977.999 779.901C982.066 780.653 982.22 782.002 982.22 782.002L962.352 891.323L952.852 901.999Z" fill="#45D62F" stroke="#031F43" stroke-width="3.85409" stroke-linecap="round" stroke-linejoin="round"/>
<path d="M947.899 829.773L949.711 836.094C949.711 836.094 961.678 843.937 961.678 849.429C961.678 854.921 959.327 859.238 955.01 860.028C950.694 860.818 943.448 857.87 937.551 853.746C931.674 849.622 926.952 845.305 926.182 843.147" fill="white"/>
<path d="M947.899 829.773L949.711 836.094C949.711 836.094 961.678 843.937 961.678 849.429C961.678 854.921 959.327 859.238 955.01 860.028C950.694 860.818 943.448 857.87 937.551 853.746C931.674 849.622 926.952 845.305 926.182 843.147" stroke="#031F43" stroke-width="3.85409" stroke-miterlimit="10" stroke-linecap="round" stroke-linejoin="round"/>
<path d="M974.144 828.984L976.764 835.883C976.764 835.883 963.044 850.201 961.078 857.659C959.113 865.116 961.078 869.221 963.429 870.801C965.78 872.381 969.114 873.538 970.482 872.169C971.85 870.801 995.784 846.289 997.75 843.341C999.715 840.393 1002.07 830.006 1002.07 830.006" fill="white"/>
<path d="M974.144 828.984L976.764 835.883C976.764 835.883 963.044 850.201 961.078 857.659C959.113 865.116 961.078 869.221 963.429 870.801C965.78 872.381 969.114 873.538 970.482 872.169C971.85 870.801 995.784 846.289 997.75 843.341C999.715 840.393 1002.07 830.006 1002.07 830.006" stroke="#031F43" stroke-width="3.85409" stroke-miterlimit="10" stroke-linecap="round" stroke-linejoin="round"/>
<path d="M851.374 780.076C851.374 780.076 824.338 781.676 808.382 801.621" stroke="#031F43" stroke-width="3.85409" stroke-miterlimit="10" stroke-linecap="round" stroke-linejoin="round"/>
<path d="M1284.1 603.443C1284.1 603.443 1412.53 938.287 1412.53 949.502C1412.53 960.718 1269.74 985.037 1252.28 979.429C1234.82 973.822 1148.78 937.67 1148.78 925.183C1148.78 919.575 1252.99 923.93 1325.86 923.93C1347.67 923.93 1363.9 923.93 1364.51 922.061C1365.13 920.192 1288.43 708.814 1288.43 708.814L1284.1 603.443Z" fill="#A7CCE9" stroke="#031F43" stroke-width="3.85409" stroke-miterlimit="10" stroke-linecap="round" stroke-linejoin="round"/>
<path d="M1175.47 464.887L1179.42 832.201L1279.2 935.491L1290.88 933.159L1286.21 335.621L1275.71 332.711L1175.47 464.887Z" fill="#A7CCE9" stroke="#031F43" stroke-width="3.85409" stroke-miterlimit="10" stroke-linecap="round" stroke-linejoin="round"/>
<path d="M1279.2 935.491L1275.71 332.711" stroke="#031F43" stroke-width="3.85409" stroke-miterlimit="10" stroke-linecap="round" stroke-linejoin="round"/>
<path d="M1272.07 838.716L1186.72 779.672L1181.88 472.616L1267.79 362.562L1272.07 838.716Z" fill="#031F43"/>
</svg>
